<svg xmlns="http://www.w3.org/2000/svg" viewBox="0 0 64 64"><linearGradient id="HaXvsZy3RluphO8_Uop9Na" x1="32" x2="32" y1="4.333" y2="58.494" gradientUnits="userSpaceOnUse" spreadMethod="reflect"><stop offset="0" stop-color="#1a6dff"/><stop offset="1" stop-color="#c822ff"/></linearGradient><path fill="url(#HaXvsZy3RluphO8_Uop9Na)" d="M33.004,58h-2.008C28.793,58,27,56.207,27,54.004v-1.161c0-0.853-0.571-1.619-1.422-1.909 c-0.819-0.278-1.632-0.616-2.415-1.003c-0.808-0.398-1.76-0.262-2.364,0.341l-0.821,0.823c-1.559,1.559-4.094,1.559-5.652,0 l-1.42-1.42c-1.559-1.558-1.559-4.094,0-5.651l0.823-0.823c0.604-0.604,0.74-1.554,0.341-2.364 c-0.387-0.782-0.725-1.595-1.003-2.414C12.776,37.571,12.01,37,11.157,37H9.996C7.793,37,6,35.207,6,33.004v-2.008 C6,28.793,7.793,27,9.996,27h1.161c0.853,0,1.619-0.571,1.909-1.422c0.278-0.819,0.616-1.632,1.003-2.415 c0.4-0.81,0.263-1.76-0.341-2.364l-0.823-0.821c-1.559-1.559-1.559-4.095,0-5.652l1.42-1.42c1.558-1.558,4.092-1.56,5.651,0 l0.824,0.824c0.604,0.604,1.555,0.741,2.363,0.341c0.773-0.382,1.586-0.718,2.412-0.998C26.428,12.783,27,12.017,27,11.163V11 c0-2.757,2.243-5,5-5v2c-1.654,0-3,1.346-3,3v0.163c0,1.71-1.117,3.239-2.781,3.804c-0.744,0.252-1.475,0.554-2.171,0.897 c-1.579,0.777-3.453,0.488-4.662-0.721l-0.824-0.824c-0.778-0.78-2.044-0.778-2.822,0l-1.42,1.42c-0.778,0.778-0.778,2.045,0,2.823 l0.823,0.821c1.211,1.211,1.5,3.086,0.72,4.665c-0.349,0.706-0.652,1.437-0.903,2.174C14.394,27.884,12.866,29,11.157,29H9.996 C8.896,29,8,29.896,8,30.996v2.008C8,34.104,8.896,35,9.996,35h1.161c1.709,0,3.236,1.116,3.802,2.777 c0.251,0.737,0.555,1.468,0.903,2.173c0.779,1.579,0.49,3.454-0.72,4.665l-0.823,0.823c-0.778,0.777-0.778,2.044,0,2.822l1.42,1.42 c0.78,0.778,2.045,0.776,2.823,0l0.821-0.823c1.212-1.211,3.088-1.5,4.665-0.72c0.706,0.349,1.437,0.652,2.174,0.903 C27.884,49.606,29,51.134,29,52.843v1.161C29,55.104,29.896,56,30.996,56h2.008C34.104,56,35,55.104,35,54.004v-1.161 c0-1.709,1.116-3.236,2.777-3.802c0.737-0.251,1.468-0.555,2.173-0.903c1.579-0.782,3.454-0.493,4.665,0.72l0.823,0.823 c0.778,0.78,2.044,0.778,2.822,0l1.42-1.42c0.778-0.778,0.778-2.045,0-2.823l-0.876-0.875c-1.186-1.187-1.465-3.015-0.696-4.551 c0.361-0.722,0.677-1.473,0.937-2.234C49.611,36.116,51.141,35,52.849,35h0.152C54.654,35,56,33.654,56,32h2 c0,2.757-2.242,5-4.999,5h-0.152c-0.853,0-1.62,0.572-1.911,1.424c-0.289,0.846-0.639,1.682-1.04,2.483 c-0.383,0.765-0.254,1.665,0.321,2.241l0.876,0.875c1.559,1.558,1.559,4.094,0,5.651l-1.42,1.42c-1.558,1.558-4.092,1.56-5.651,0 L43.2,50.271c-0.602-0.604-1.551-0.738-2.364-0.341c-0.782,0.387-1.595,0.725-2.414,1.003C37.571,51.224,37,51.99,37,52.843v1.161 C37,56.207,35.207,58,33.004,58z"/><linearGradient id="HaXvsZy3RluphO8_Uop9Nb" x1="32" x2="32" y1="26.417" y2="37.669" gradientUnits="userSpaceOnUse" spreadMethod="reflect"><stop offset="0" stop-color="#6dc7ff"/><stop offset="1" stop-color="#e6abff"/></linearGradient><path fill="url(#HaXvsZy3RluphO8_Uop9Nb)" d="M32 27A5 5 0 1 0 32 37A5 5 0 1 0 32 27Z"/><linearGradient id="HaXvsZy3RluphO8_Uop9Nc" x1="32" x2="32" y1="4.333" y2="58.494" gradientUnits="userSpaceOnUse" spreadMethod="reflect"><stop offset="0" stop-color="#1a6dff"/><stop offset="1" stop-color="#c822ff"/></linearGradient><path fill="url(#HaXvsZy3RluphO8_Uop9Nc)" d="M32,48c-8.822,0-16-7.178-16-16s7.178-16,16-16v2c-7.72,0-14,6.28-14,14s6.28,14,14,14 s14-6.28,14-14h2C48,40.822,40.822,48,32,48z"/><linearGradient id="HaXvsZy3RluphO8_Uop9Nd" x1="32" x2="32" y1="4.333" y2="58.494" gradientUnits="userSpaceOnUse" spreadMethod="reflect"><stop offset="0" stop-color="#1a6dff"/><stop offset="1" stop-color="#c822ff"/></linearGradient><path fill="url(#HaXvsZy3RluphO8_Uop9Nd)" d="M32,43c-6.065,0-11-4.935-11-11s4.935-11,11-11v2c-4.963,0-9,4.037-9,9s4.037,9,9,9 s9-4.037,9-9h2C43,38.065,38.065,43,32,43z"/><linearGradient id="HaXvsZy3RluphO8_Uop9Ne" x1="46" x2="46" y1="4.333" y2="58.494" gradientUnits="userSpaceOnUse" spreadMethod="reflect"><stop offset="0" stop-color="#1a6dff"/><stop offset="1" stop-color="#c822ff"/></linearGradient><path fill="url(#HaXvsZy3RluphO8_Uop9Ne)" d="M46,30c-1.654,0-3-1.346-3-3v-0.524c-0.311-0.108-0.574-0.219-0.832-0.34l-0.411,0.35 c-1.13,1.132-3.108,1.134-4.242,0c-0.566-0.566-0.879-1.32-0.879-2.121c0-0.802,0.313-1.556,0.879-2.122l0.37-0.369 c-0.142-0.299-0.252-0.563-0.348-0.833L37,21c-1.654,0-3-1.346-3-3s1.346-3,3-3h0.524c0.108-0.311,0.219-0.574,0.34-0.832 l-0.35-0.411c-0.566-0.565-0.879-1.319-0.879-2.121c0-0.801,0.313-1.555,0.879-2.121c1.134-1.134,3.111-1.132,4.243,0l0.369,0.37 c0.299-0.142,0.563-0.252,0.833-0.348L43,9c0-1.654,1.346-3,3-3s3,1.346,3,3v0.524c0.311,0.108,0.574,0.219,0.832,0.34l0.411-0.35 c1.13-1.132,3.109-1.134,4.242,0c0.566,0.566,0.879,1.32,0.879,2.121c0,0.802-0.313,1.556-0.879,2.122l-0.37,0.369 c0.142,0.299,0.252,0.563,0.348,0.833L55,15c1.654,0,3,1.346,3,3s-1.346,3-3,3h-0.524c-0.108,0.311-0.219,0.574-0.34,0.832 l0.35,0.411c0.566,0.565,0.879,1.319,0.879,2.121c0,0.801-0.313,1.555-0.879,2.121c-1.133,1.134-3.111,1.132-4.243,0l-0.369-0.37 c-0.299,0.142-0.563,0.252-0.833,0.348L49,27C49,28.654,47.654,30,46,30z M42.115,24.121c0.303,0,0.611,0.067,0.905,0.205 c0.198,0.095,0.401,0.178,0.609,0.252c0.834,0.301,1.37,1.045,1.37,1.897V27c0,0.552,0.448,1,1,1s1-0.448,1-1v-0.524 c0-0.853,0.536-1.597,1.366-1.896c0.212-0.076,0.415-0.159,0.612-0.253c0.799-0.376,1.706-0.229,2.309,0.374l0.37,0.37 c0.378,0.38,1.035,0.378,1.414,0c0.188-0.189,0.293-0.44,0.293-0.707c0-0.268-0.104-0.518-0.293-0.706l-0.37-0.371 c-0.604-0.604-0.75-1.509-0.375-2.308c0.095-0.198,0.178-0.401,0.252-0.609c0.301-0.834,1.045-1.37,1.897-1.37H55 c0.552,0,1-0.448,1-1s-0.448-1-1-1h-0.524c-0.853,0-1.597-0.536-1.896-1.366c-0.076-0.212-0.159-0.415-0.253-0.612 c-0.376-0.8-0.229-1.705,0.374-2.309l0.37-0.37c0.189-0.189,0.293-0.439,0.293-0.707c0-0.267-0.104-0.518-0.293-0.707 c-0.38-0.378-1.037-0.378-1.413,0l-0.371,0.37c-0.603,0.604-1.509,0.75-2.308,0.375c-0.198-0.095-0.401-0.178-0.609-0.252 C47.536,11.121,47,10.377,47,9.524V9c0-0.552-0.448-1-1-1s-1,0.448-1,1v0.524c0,0.853-0.536,1.597-1.366,1.896 c-0.212,0.076-0.415,0.159-0.612,0.253c-0.798,0.377-1.706,0.229-2.309-0.374l-0.37-0.37c-0.378-0.378-1.034-0.376-1.414,0 c-0.188,0.189-0.293,0.44-0.293,0.707c0,0.268,0.104,0.518,0.293,0.706l0.37,0.371c0.604,0.604,0.75,1.509,0.375,2.308 c-0.095,0.198-0.178,0.401-0.252,0.609C39.121,16.464,38.377,17,37.524,17H37c-0.552,0-1,0.448-1,1s0.448,1,1,1h0.524 c0.853,0,1.597,0.536,1.896,1.366c0.076,0.212,0.159,0.415,0.253,0.612c0.376,0.8,0.229,1.705-0.374,2.309l-0.37,0.37 c-0.189,0.189-0.293,0.439-0.293,0.707c0,0.267,0.104,0.518,0.293,0.707c0.38,0.377,1.037,0.379,1.413,0l0.371-0.37 C41.094,24.32,41.596,24.121,42.115,24.121z"/><linearGradient id="HaXvsZy3RluphO8_Uop9Nf" x1="46" x2="46" y1="4.333" y2="58.494" gradientUnits="userSpaceOnUse" spreadMethod="reflect"><stop offset="0" stop-color="#1a6dff"/><stop offset="1" stop-color="#c822ff"/></linearGradient><path fill="url(#HaXvsZy3RluphO8_Uop9Nf)" d="M46,22c-2.206,0-4-1.794-4-4s1.794-4,4-4s4,1.794,4,4S48.206,22,46,22z M46,16 c-1.103,0-2,0.897-2,2s0.897,2,2,2s2-0.897,2-2S47.103,16,46,16z"/></svg>